<svg id="SvgjsSvg1047" width="288" height="288" xmlns="http://www.w3.org/2000/svg" version="1.1" xmlns:xlink="http://www.w3.org/1999/xlink" xmlns:svgjs="http://svgjs.com/svgjs"><defs id="SvgjsDefs1048"></defs><g id="SvgjsG1049"><svg xmlns="http://www.w3.org/2000/svg" viewBox="0 0 25 25" width="288" height="288"><path d="M12.5,2.44A10.06,10.06,0,1,0,22.56,12.5,10.07,10.07,0,0,0,12.5,2.44Zm0,19.12a9.06,9.06,0,1,1,9.06-9.06A9.06,9.06,0,0,1,12.5,21.56Z" fill="#ec008c" class="color000 svgShape"></path><path d="M18.25 14.59L18 14.38a5.71 5.71 0 00.34-1.86.5.5 0 00-1 0A4.77 4.77 0 0117 14.37a4.83 4.83 0 01-1.62 2 4.69 4.69 0 01-2.81.93 4.8 4.8 0 01-4.8-4.8.5.5 0 00-1 0 5.8 5.8 0 005.8 5.8 5.67 5.67 0 003.07-.92l.26.21A2 2 0 0017 18a1.89 1.89 0 001.4-.6A1.86 1.86 0 0018.91 16 2 2 0 0018.25 14.59zm-.57 2.1h0a1 1 0 01-1.22.12l0 0 0-.05a5.67 5.67 0 00.58-.62h0a6.07 6.07 0 00.49-.72l0-.05h0a1 1 0 01.31.69A.94.94 0 0117.68 16.69zM7.87 10.09a.49.49 0 00.53-.46 1.18 1.18 0 01.41-.8 1.05 1.05 0 01.78-.27 1.14 1.14 0 011 1.07.49.49 0 00.49.46h0a.49.49 0 00.46-.53 2.13 2.13 0 00-1.92-2 2 2 0 00-1.51.51 2.14 2.14 0 00-.75 1.49A.49.49 0 007.87 10.09zM13.87 10.09a.49.49 0 00.53-.46 1.18 1.18 0 01.41-.8 1.05 1.05 0 01.78-.27 1.14 1.14 0 011 1.07.49.49 0 00.49.46h0a.49.49 0 00.46-.53 2.13 2.13 0 00-1.92-2 2 2 0 00-1.51.51 2.14 2.14 0 00-.75 1.49A.49.49 0 0013.87 10.09z" fill="#ec008c" class="color000 svgShape"></path></svg></g></svg>