<svg id="SvgjsSvg1001" width="288" height="288" xmlns="http://www.w3.org/2000/svg" version="1.1" xmlns:xlink="http://www.w3.org/1999/xlink" xmlns:svgjs="http://svgjs.com/svgjs"><defs id="SvgjsDefs1002"></defs><g id="SvgjsG1008"><svg xmlns="http://www.w3.org/2000/svg" viewBox="0 0 64 64" width="288" height="288"><path d="M16.265 12.321c-.189.205-.284.48-.262.759l3.705 46.319c.207 2.58 2.396 4.601 4.985 4.601h14.614c2.589 0 4.778-2.021 4.984-4.601l2.835-35.444c.289.024.579.045.874.045 6.065 0 11-4.935 11-11S54.065 2 48 2c-5.728 0-10.442 4.402-10.949 10h-12.95l-1.693-9.735a.997.997 0 0 0-.026-.111A3.019 3.019 0 0 0 19.503 0H12a1 1 0 1 0 0 2h7.503c.425 0 .807.274.945.673L22.071 12H17c-.279 0-.545.116-.735.321zM48 4c4.962 0 9 4.037 9 9s-4.038 9-9 9c-.241 0-.478-.017-.714-.036l.08-.996c.209.016.42.032.634.032 4.411 0 8-3.589 8-8s-3.589-8-8-8c-4.072 0-7.436 3.06-7.931 7h-1.01c.499-4.493 4.317-8 8.941-8zm-7.931 10a7.933 7.933 0 0 0 1.013 3H39.95a8.912 8.912 0 0 1-.891-3h1.01zm3.046 2.471A5.964 5.964 0 0 1 42.09 14h3.496l-2.471 2.471zM47 15.414v3.495a5.976 5.976 0 0 1-2.471-1.024L47 15.414zm2 0 2.471 2.471A5.964 5.964 0 0 1 49 18.91v-3.496zm3.885 1.057L50.414 14h3.496a5.964 5.964 0 0 1-1.025 2.471zM50.414 12l2.471-2.471A5.964 5.964 0 0 1 53.91 12h-3.496zM49 10.586V7.09c.909.154 1.749.51 2.471 1.024L49 10.586zm-2 0-2.471-2.471A5.964 5.964 0 0 1 47 7.09v3.496zm-3.885-1.057L45.586 12H42.09a5.964 5.964 0 0 1 1.025-2.471zM42.726 19a7.992 7.992 0 0 0 2.666 1.555l-.083 1.034A9.011 9.011 0 0 1 41.31 19h1.416zm-5.675-5c.095 1.05.343 2.055.713 3H31a1 1 0 1 0 0 2h7.792a11.033 11.033 0 0 0 6.355 4.612l-2.85 35.628a3.015 3.015 0 0 1-2.99 2.76H24.693a3.017 3.017 0 0 1-2.991-2.761L18.483 19h4.805l.798 4.59-1.981 3.963a1 1 0 0 0 .447 1.342l2.69 1.345 2.772 15.931a1.002 1.002 0 0 0 1.157.814 1 1 0 0 0 .814-1.156l-2.518-14.477 1.086.543a.997.997 0 0 0 1.155-.188l5-5a1 1 0 0 0 .125-1.262l-2-3a1.002 1.002 0 0 0-.385-.34l-4-2a1 1 0 0 0-1.154.188l-1.49 1.49L25.319 19H27a1 1 0 1 0 0-2h-2.029l-.522-3h12.602zM24.342 27.553l1.105-2.211L28 26.618v2.764l-3.658-1.829zM30 26.414l1.845-1.845.869 1.304L30 28.586v-2.172zm-1.197-1.631-2.114-1.057 1.509-1.509 2.115 1.057-1.51 1.509zM22.419 14l.522 3h-4.618l-.24-3h4.336z" fill="#ec008c" class="color000 svgShape"></path><path d="m38.947 36.605-4-2a1 1 0 0 0-1.342.447l-3 6a1 1 0 0 0 .188 1.154l5 5a.996.996 0 0 0 1.261.126l3-2c.145-.097.262-.229.34-.385l2-4a1 1 0 0 0-.188-1.154l-3-3a.982.982 0 0 0-.259-.188zm-4 .237 2.211 1.106-1.276 2.552h-2.764l1.829-3.658zm1.68 8.371L33.914 42.5h2.172l1.844 1.844-1.303.869zm2.599-2.401-1.509-1.509 1.057-2.114 1.509 1.509-1.057 2.114zm-6.095 7.483a1 1 0 0 0-.949-.684h-4.243c-.107 0-.214.018-.316.052l-4.243 1.414a1 1 0 0 0-.632 1.265l2.121 6.363a1 1 0 0 0 .949.684h7.071a1 1 0 0 0 .98-.804l.707-3.535a1.004 1.004 0 0 0-.032-.513l-1.413-4.242zm-.922 3.559h-2.135l-.747-2.242h2.135l.747 2.242zm-7.247-1.196 2.345-.782.902 2.707-1.954 1.954-1.293-3.879zm3.27 4.731 1.535-1.535h2.609l-.307 1.535h-3.837z" fill="#ec008c" class="color000 svgShape"></path><circle cx="38" cy="21" r="1" fill="#ec008c" class="color000 svgShape"></circle><circle cx="22" cy="22" r="1" fill="#ec008c" class="color000 svgShape"></circle><circle cx="25" cy="47" r="1" fill="#ec008c" class="color000 svgShape"></circle><circle cx="22" cy="36" r="1" fill="#ec008c" class="color000 svgShape"></circle><circle cx="41" cy="36" r="1" fill="#ec008c" class="color000 svgShape"></circle><circle cx="41" cy="27" r="1" fill="#ec008c" class="color000 svgShape"></circle><circle cx="23" cy="41" r="1" fill="#ec008c" class="color000 svgShape"></circle><path d="M39 49c-1.654 0-3 1.346-3 3s1.346 3 3 3 3-1.346 3-3-1.346-3-3-3zm0 4a1.001 1.001 0 0 1 0-2 1.001 1.001 0 0 1 0 2zm-5-22c0 1.654 1.346 3 3 3s3-1.346 3-3-1.346-3-3-3-3 1.346-3 3zm3-1a1.001 1.001 0 1 1-1 1c0-.552.449-1 1-1z" fill="#ec008c" class="color000 svgShape"></path></svg></g></svg>