<svg id="SvgjsSvg1101" width="288" height="288" xmlns="http://www.w3.org/2000/svg" version="1.1" xmlns:xlink="http://www.w3.org/1999/xlink" xmlns:svgjs="http://svgjs.com/svgjs"><defs id="SvgjsDefs1102"></defs><g id="SvgjsG1103"><svg xmlns="http://www.w3.org/2000/svg" enable-background="new 0 0 64 64" viewBox="0 0 64 64" width="288" height="288"><path d="M51,28h-3.2l-10.6-8.9c0.6-0.9,0.9-2,0.9-3.1c0-3.3-2.7-6-6-6s-6,2.7-6,6c0,1.2,0.3,2.2,0.9,3.1L16.3,28H13	c-2.8,0-5,2.3-5,5V51c0,2.8,2.3,5,5,5H51c2.8,0,5-2.3,5-5V33C56,30.3,53.7,28,51,28z M32,14c1.1,0,2,0.9,2,2s-0.9,2-2,2s-2-0.9-2-2
	S30.9,14,32,14z M30.1,21.7c0.6,0.2,1.2,0.3,1.9,0.3s1.3-0.1,1.9-0.3l7.6,6.3h-19L30.1,21.7z M52,51c0,0.6-0.5,1-1,1H13
	c-0.6,0-1-0.5-1-1V33c0-0.6,0.5-1,1-1H51c0.6,0,1,0.5,1,1V51z" fill="#ec008c" class="color000 svgShape"></path></svg></g></svg>