<svg id="SvgjsSvg1067" width="288" height="288" xmlns="http://www.w3.org/2000/svg" version="1.1" xmlns:xlink="http://www.w3.org/1999/xlink" xmlns:svgjs="http://svgjs.com/svgjs"><defs id="SvgjsDefs1068"></defs><g id="SvgjsG1069"><svg xmlns="http://www.w3.org/2000/svg" viewBox="0 0 16.933 16.933" width="288" height="288"><path d="m 7.9140625,1.8515625 -5.4257813,0.1875 C 2.3488969,2.0436005 2.2369598,2.1555376 2.2324219,2.2949219 l -0.1875,5.4257812 c -0.00256,0.069027 0.021974,0.1363179 0.068359,0.1875 l 7.484375,8.2304689 c 0.1014211,0.111923 0.2757976,0.116387 0.3828126,0.0098 L 16.341797,9.7871094 C 16.448384,9.6800944 16.44392,9.505718 16.331997,9.4042969 L 8.0996094,1.9199219 C 8.0489183,1.8740139 7.9824214,1.8495151 7.9140625,1.8515625 Z M 7.8242188,2.3847656 15.771484,9.609375 9.8027344,15.576172 2.578125,7.6308594 2.7539062,2.5605469 Z" color="#000" font-family="sans-serif" font-weight="400" overflow="visible" style="line-height:normal;font-variant-ligatures:normal;font-variant-position:normal;font-variant-caps:normal;font-variant-numeric:normal;font-variant-alternates:normal;font-feature-settings:normal;text-indent:0;text-align:start;text-decoration-line:none;text-decoration-style:solid;text-decoration-color:#000;text-transform:none;text-orientation:mixed;shape-padding:0;isolation:auto;mix-blend-mode:normal" fill="#ec008c" class="color000 svgShape"></path><path d="M5.3027344 3.7890625c-.3391179 0-.6783394.127558-.9355469.3847656-.5144153.5144151-.5144153 1.3566787 0 1.8710938.5144151.514415 1.3566787.514415 1.8710937 0 .5144151-.5144152.514415-1.3566787 0-1.8710938C5.9810737 3.9166205 5.6418523 3.7890625 5.3027344 3.7890625zM4.7421875 4.5488281c.3121946-.3121946.8108523-.3121947 1.1230469 0 .3121945.3121946.3121946.8108522 0 1.1230469-.3121946.3121946-.8108522.3121946-1.1230469 0-.3121947-.3121945-.3121947-.8108523 0-1.1230469zM8.4785156 7.2753906C8.4098711 7.2775004 8.344736 7.306216 8.296875 7.3554688l-.375.3730468c0 0-.1340412.1306392-.203125.3378906-.069084.2072515-.046327.5357047.203125.7851563.2494516.2494516.5779048.274162.7851562.2050781.2072515-.069084.3378907-.2050781.3378907-.2050781 0 0 .057478-.051711.1308593-.076172.073382-.024461.119415-.048554.2441407.076172.1247257.1247258.1006324.1707589.076172.2441406-.024461.073382-.076172.1308594-.076172.1308594l-.375.3730469c-.2499999.2499999.1250001.6249996.375.375l.3730469-.375c0 0 .1359942-.1286861.2050781-.3359375C10.067131 9.0564205 10.04242 8.7279673 9.7929688 8.4785156 9.5435172 8.229064 9.2150639 8.2043536 9.0078125 8.2734375 8.8005611 8.3425214 8.671875 8.4785156 8.671875 8.4785156c0 0-.057478.051711-.1308594.076172C8.467634 8.5791481 8.4216008 8.6032414 8.296875 8.4785156 8.1721492 8.3537898 8.1962426 8.3077566 8.2207031 8.234375 8.2451637 8.1609934 8.296875 8.1035156 8.296875 8.1035156l.375-.375C8.8433678 7.5598024 8.7189814 7.2683111 8.4785156 7.2753906z" color="#000" font-family="sans-serif" font-weight="400" overflow="visible" style="line-height:normal;font-variant-ligatures:normal;font-variant-position:normal;font-variant-caps:normal;font-variant-numeric:normal;font-variant-alternates:normal;font-feature-settings:normal;text-indent:0;text-align:start;text-decoration-line:none;text-decoration-style:solid;text-decoration-color:#000;text-transform:none;text-orientation:mixed;shape-padding:0;isolation:auto;mix-blend-mode:normal" fill="#ec008c" class="color000 svgShape"></path><path d="M7.7070312 7.2753906C7.4830201 7.2976464 7.387348 7.5716702 7.5488281 7.7285156l.3730469.375.375-.375-.375-.3730468C7.866144 7.2975243 7.7870922 7.2680595 7.7070312 7.2753906zM9.4199219 9.5996094l.3730469.375c.2500002.2499996.6250002-.125.3750002-.375L9.7929688 9.2265625z" color="#000" font-family="sans-serif" font-weight="400" overflow="visible" style="line-height:normal;font-variant-ligatures:normal;font-variant-position:normal;font-variant-caps:normal;font-variant-numeric:normal;font-variant-alternates:normal;font-feature-settings:normal;text-indent:0;text-align:start;text-decoration-line:none;text-decoration-style:solid;text-decoration-color:#000;text-transform:none;text-orientation:mixed;shape-padding:0;isolation:auto;mix-blend-mode:normal" fill="#ec008c" class="color000 svgShape"></path><path d="M6.9868227 6.7934731c-1.0310462 1.0310462-1.031046 2.7116484 0 3.7426939 1.0310457 1.031046 2.7116476 1.031046 3.7426933 0 1.031047-1.0310462 1.031047-2.7116481.000001-3.7426938-1.0310457-1.031046-2.7116481-1.0310461-3.7426943-1e-7zm.3742697.3742698c.8288257-.8288257 2.1653289-.8288265 2.9941546-3e-7.828826.8288259.828826 2.1653292 0 2.9941544-.8288257.828826-2.165329.828827-2.994155.000001-.828826-.8288261-.8288253-2.1653294 4e-7-2.9941551zM.92578125 12.167969c-.13560574.0084-.24281105.118141-.24804687.253906l-.1640625 3.441406c-.006148.150732.11476936.276095.265625.275391l9.01028652.000911v-.529166l-8.7329428.000911.1503906-3.164062c.00915-.158671-.1226465-.289555-.28124995-.279297zM.97851562 11.376953c-.35286453 0-.35286453.529297 0 .529297.35286448 0 .35286448-.529297 0-.529297zM2.2597656 3.5136719L1.1269531 4.5683594C1.0762601 4.6155778 1.0461065 4.6807936 1.0429688 4.75l-.28906255 6.085938c-.0169972.352928.51229965.378318.52929685.02539L1.5664062 4.8828125 2.6210938 3.9003906zM5.2871094.7890625C5.1409281.79171334 5.0246005.9124142 5.0273438 1.0585938v3.96875c0 .3528644.5292968.3528644.5292968 0v-3.96875C5.5594576.90858448 5.4371187.78624559 5.2871094.7890625z" color="#000" font-family="sans-serif" font-weight="400" overflow="visible" style="line-height:normal;font-variant-ligatures:normal;font-variant-position:normal;font-variant-caps:normal;font-variant-numeric:normal;font-variant-alternates:normal;font-feature-settings:normal;text-indent:0;text-align:start;text-decoration-line:none;text-decoration-style:solid;text-decoration-color:#000;text-transform:none;text-orientation:mixed;shape-padding:0;isolation:auto;mix-blend-mode:normal" fill="#ec008c" class="color000 svgShape"></path></svg></g></svg>